<?xml version="1.0" encoding="utf-8"?>
<!-- Generator: Adobe Illustrator 16.0.0, SVG Export Plug-In . SVG Version: 6.00 Build 0)  -->
<!DOCTYPE svg PUBLIC "-//W3C//DTD SVG 1.1//EN" "http://www.w3.org/Graphics/SVG/1.1/DTD/svg11.dtd">
<svg version="1.1" id="Ebene_1" xmlns="http://www.w3.org/2000/svg" xmlns:xlink="http://www.w3.org/1999/xlink" x="0px" y="0px"
	 width="771.428px" height="174.286px" viewBox="0 0 771.428 174.286" enable-background="new 0 0 771.428 174.286"
	 xml:space="preserve">
<g>
	<path fill="#3ccfcf" d="M91.84,97.195c-0.73-1.823-1.899-6.96-4.237-6.96c-2.776,0-3.799,4.309-7.598,14.914l-8.912,25.022
		c-3.068,8.617-4.529,14.748-14.026,14.748c-8.182,0-10.374-5.8-13.003-13.422L16.889,52.785c-4.091-11.931-9.935-5.8-9.935-15.908
		c0-11.434,19.724-11.766,26.445-11.766c21.331,0,24.983,3.812,24.983,10.605c0,4.971-3.36,5.634-3.36,10.771
		c0,4.806,4.529,16.903,5.114,18.891c0.73,2.651,3.945,14.251,7.305,14.251c3.798,0,6.867-11.931,7.597-14.417
		c0.438-0.995,1.899-5.303,1.899-6.463c0-1.491-3.068-11.765-7.451-14.583c-2.922-1.657-5.406-3.977-5.406-8.12
		c0-0.995-2.046-10.937,28.49-10.937c28.344,0,27.76,7.457,27.76,10.274c0,5.469-6.575,6.96-6.575,11.103
		c0,4.474,4.967,14.749,6.429,18.394c1.022,2.651,4.237,12.925,7.743,12.925c4.968,0,11.25-28.17,11.25-30.491
		c0-7.125-9.497-3.48-9.497-12.594c0-10.108,14.902-9.611,20.893-9.611s16.948,0.829,16.948,10.108
		c0,8.12-6.136,5.965-10.081,17.565l-25.129,74.569c-3.068,8.949-6.429,17.565-14.756,17.565c-7.305,0-9.643-4.474-12.273-11.434
		L91.84,97.195z"/>
	<path fill="#3ccfcf" d="M214.267,112.44c0,19.554,8.62,12.428,8.62,21.211c0,11.268-18.555,11.268-25.13,11.268
		c-25.13,0-26.152-6.463-26.152-10.439c0-5.966,5.99-6.297,7.743-11.434c1.899-5.8,2.192-29.828,0.584-35.959
		c-1.315-5.8-8.766-3.977-8.766-11.434c0-11.765,37.11-16.737,38.571-16.737c4.383,0,4.529,3.812,4.529,7.292V112.44z
		 M185.338,53.613c-6.136,0-12.711-3.148-12.711-11.268c0-10.937,19.286-15.411,26.737-15.411c5.844,0,14.172,2.154,14.172,10.44
		C213.537,50.299,193.667,53.613,185.338,53.613z"/>
	<path fill="#3ccfcf" d="M276.944,112.44c-0.877,1.988-3.214,6.462-3.214,8.617c0,3.48,2.776,4.143,5.26,4.143
		c11.98,0,9.643-14.251,16.071-14.251c5.26,0,7.305,5.634,7.305,10.937c0,12.925-9.935,23.862-14.61,23.862
		c-2.922,0-2.922-2.651-13.295-2.651h-35.649c-3.652,0-11.834,0-11.834-6.297c0-3.646,3.068-7.789,4.675-10.771l17.678-32.313
		c1.169-2.154,5.698-9.942,5.698-12.594c0-3.48-4.237-3.48-6.429-3.48c-10.52,0-8.766,13.919-16.51,13.919
		c-4.529,0-6.574-4.971-6.574-9.445c0-11.434,8.328-24.525,12.857-24.525c3.945,0,4.821,2.982,29.074,2.982h16.218
		c2.191-0.166,10.812-0.497,12.418,0.497c1.607,0.995,2.484,2.817,2.484,4.806c0,3.148-2.191,7.457-3.506,10.108L276.944,112.44z"/>
	<path fill="#3ccfcf" d="M379.651,103.492c0,29.165,8.766,13.257,8.766,22.206c0,9.445-11.396,19.719-22.062,19.719
		c-11.542,0-11.834-8.451-15.487-8.451c-1.753,0-3.652,2.154-6.867,4.143c-3.214,2.154-7.598,4.309-14.318,4.309
		c-12.126,0-24.253-7.291-24.253-23.696c0-11.766,9.935-26.348,35.649-26.348c4.529,0,6.575,0.332,6.575-5.634
		c0-5.468-0.146-16.902-6.867-16.902c-8.766,0-9.643,17.896-22.646,17.896c-4.675,0-8.182-3.811-8.182-9.114
		c0-14.085,24.691-23.2,38.571-23.2c8.328,0,31.12,3.646,31.12,28.502V103.492z M335.82,118.074c0,4.309,2.045,8.949,6.282,8.949
		c5.552,0,5.99-6.794,5.99-11.766c0-3.646,0.146-7.789-3.945-7.789C339.181,107.469,335.82,112.771,335.82,118.074z"/>
	<path fill="#3ccfcf" d="M481.043,115.092c0,11.6,7.743,7.788,7.743,16.405c0,12.594-31.996,13.422-33.604,13.422
		c-7.451,0-2.191-9.114-7.013-9.114c-1.315,0-3.507,2.32-6.867,4.806c-3.36,2.32-7.89,4.806-14.318,4.806
		c-19.139,0-34.042-23.034-34.042-43.416c0-22.04,15.779-43.582,35.941-43.582c10.081,0,15.779,4.972,17.387,4.972
		c2.191,0,2.338-5.469,2.338-7.292c0-10.274-10.666-4.806-10.666-13.754c0-12.263,37.256-15.411,37.694-15.411
		c4.384,0,5.406,3.48,5.406,8.948V115.092z M440.281,76.481c-9.789,0-11.542,19.057-11.542,26.845s1.753,21.376,10.812,21.376
		c9.789,0,9.204-20.382,9.204-27.673C448.754,90.566,448.754,76.481,440.281,76.481z"/>
	<path fill="#3ccfcf" d="M501.641,92.886c0-16.239-9.059-7.125-9.059-17.234c0-13.091,34.188-16.737,35.503-16.737
		c5.552,0,5.698,1.657,6.282,7.292c0.146,1.989,0,5.8,2.483,5.8c3.507,0,5.698-13.091,18.264-13.091
		c9.788,0,16.217,8.286,16.217,19.223c0,11.103-8.328,19.885-17.971,19.885c-9.496,0-12.126-9.445-15.925-9.445
		c-4.091,0-3.36,11.103-3.36,14.085c0,4.971,0.438,11.931,1.169,18.228c0.876,7.291,11.98,2.817,11.98,12.76
		c0,10.439-12.857,11.268-28.929,11.268c-6.721,0-26.591,0.332-26.591-11.103c0-6.96,6.721-6.96,8.328-12.76
		c1.169-4.143,1.607-13.588,1.607-18.228V92.886z"/>
	<path fill="#3ccfcf" d="M574.982,104.817c0-29.662,22.938-46.399,47.045-46.399c25.568,0,40.179,22.703,40.179,43.25
		c0,27.177-25.714,43.748-47.191,43.748C593.391,145.417,574.982,131,574.982,104.817z M615.745,77.973
		c-4.821,0-7.451,5.137-7.159,9.942c0.585,10.44,3.215,35.959,13.296,36.622c5.552,0.332,6.721-4.971,6.721-10.274
		C628.602,106.806,625.679,77.973,615.745,77.973z"/>
	<path fill="#3ccfcf" d="M677.689,110.286c0-17.4-0.877-21.211-1.607-22.04c-1.899-2.154-9.789,0-9.789-9.445
		c0-11.269,30.098-19.886,40.909-19.886c3.506,0,4.091,1.326,4.091,4.972c0,1.16,0.146,3.48,1.606,3.48
		c2.046,0,10.228-8.949,22.208-8.949c19.14,0,29.367,21.708,29.367,41.096c0,22.206-13.88,45.902-35.211,45.902
		c-6.867,0-13.734-4.143-15.049-4.143c-2.046,0-2.338,3.48-2.338,5.303c0,12.594,9.059,8.617,9.059,16.737
		c0,9.28-13.295,10.439-18.993,10.439c-19.578,0-34.919-8.12-34.919-16.571c0-7.457,5.99-4.64,8.62-11.103
		c1.461-3.48,2.046-8.286,2.046-26.68V110.286z M717.721,82.944c-5.26,0-7.014,2.485-7.014,32.645c0,5.468,2.338,7.457,7.451,7.457
		c9.059,0,10.228-11.103,10.228-19.057S726.925,82.944,717.721,82.944z"/>
</g>
</svg>
